<svg xmlns="http://www.w3.org/2000/svg" width="653" height="382" viewBox="0 0 653 382" version="1.1"><path d="M 137.086 76.717 C 131.582 78.661, 125.173 84.966, 122.143 91.416 C 120.314 95.310, 114.467 118.476, 110.336 138.199 C 110.025 139.683, 109.035 141.545, 108.135 142.335 C 107.236 143.126, 97.324 146.773, 86.110 150.441 C 74.895 154.108, 63.548 158.209, 60.893 159.554 C 55.054 162.513, 49.273 168.104, 47.388 172.613 C 45.411 177.345, 45.657 187.648, 47.863 192.505 C 50.484 198.273, 59.167 205.689, 70.578 211.904 C 88.140 221.470, 97.955 227.948, 98.461 230.308 C 98.720 231.513, 99.446 242.400, 100.075 254.499 C 101.348 278.968, 102.808 285.923, 107.992 292.187 C 112.423 297.544, 120.973 301.333, 127.420 300.798 C 137.316 299.977, 142.660 296.456, 160.489 279.010 C 175.605 264.220, 177.136 262.993, 179.707 263.610 C 182.551 264.291, 201.548 270.897, 219.362 277.400 C 237.534 284.033, 250.670 281.222, 257.746 269.185 C 260.179 265.046, 260.484 263.567, 260.363 256.500 C 260.267 250.891, 259.553 246.727, 257.973 242.568 L 255.720 236.635 258.232 234.568 C 261.952 231.505, 263 228.790, 263 222.218 L 263 216.304 267.250 214.515 C 278.377 209.833, 281.732 207.883, 282.837 205.459 C 283.609 203.765, 284 195.503, 284 180.907 C 284 159, 283.990 158.899, 281.592 156.501 C 279.979 154.888, 277.503 153.870, 274.092 153.418 L 269 152.742 269 145.687 C 269 134.020, 263.560 126.083, 253.128 122.528 C 247.431 120.587, 234.556 120.580, 217.500 122.510 C 199.794 124.512, 194.082 124.453, 192.325 122.250 C 191.558 121.287, 185.555 113.012, 178.985 103.861 C 165.893 85.623, 159.431 79.016, 152.316 76.592 C 146.610 74.648, 142.857 74.679, 137.086 76.717 M 136.429 81.893 C 128.697 85.405, 123.949 93.895, 120.991 109.500 C 120.365 112.800, 118.245 122.157, 116.280 130.294 C 113.637 141.232, 112.224 145.345, 110.858 146.076 C 109.842 146.620, 99.038 150.423, 86.850 154.528 C 74.662 158.633, 62.700 163.158, 60.268 164.583 C 47.384 172.133, 46.434 189.366, 58.338 199.558 C 60.627 201.518, 67.675 206.014, 74 209.549 C 80.325 213.083, 89.325 218.383, 94 221.326 L 102.500 226.676 103.840 250.588 C 105.486 279.969, 106.822 285.737, 113.380 291.783 C 120.092 297.969, 128.822 298.662, 137.846 293.726 C 140.083 292.501, 149.604 283.993, 159.004 274.819 C 175.071 259.137, 176.257 258.191, 178.798 259.029 C 191.664 263.275, 206.484 268.597, 216.500 272.570 C 226.336 276.471, 229.672 277.340, 235 277.386 C 243.997 277.464, 251.001 273.611, 254.788 266.500 C 257.205 261.960, 256.837 250.878, 254.023 243.500 C 250.629 234.603, 250.807 234.719, 241.547 235.386 C 228.707 236.310, 227.014 236.218, 225.804 234.529 C 225.422 233.995, 224.826 233.840, 224.481 234.186 C 224.136 234.531, 224.976 237.218, 226.349 240.157 C 227.721 243.096, 228.992 246.625, 229.172 248 C 229.447 250.094, 229.125 250.460, 227.191 250.251 C 225.921 250.115, 222.546 248.904, 219.691 247.561 C 211.866 243.881, 205.412 241.917, 203.348 242.588 C 201.998 243.027, 201.859 242.932, 202.830 242.236 C 203.803 241.539, 202.785 240.833, 199.039 239.608 C 196.223 238.686, 193.417 238.242, 192.805 238.621 C 192.178 239.008, 191.969 238.859, 192.326 238.282 C 193.128 236.984, 182.265 236.007, 171.850 236.440 C 163.767 236.776, 161.541 237.449, 162.638 239.224 C 163.042 239.877, 162.843 240.021, 162.138 239.585 C 161.436 239.151, 158.683 241.091, 155.263 244.431 C 152.126 247.494, 149.160 250, 148.672 250 C 148.185 250, 148.054 250.698, 148.382 251.552 C 148.751 252.514, 148.566 252.850, 147.896 252.436 C 147.296 252.065, 143.297 255.446, 138.900 260.043 C 134.546 264.594, 130.697 268.030, 130.346 267.679 C 129.585 266.918, 129.493 265.898, 127.990 241.500 C 126.810 222.346, 125.702 215, 123.993 215 C 123.481 215, 123.352 214.247, 123.705 213.326 C 124.200 212.036, 123.945 211.807, 122.590 212.327 C 121.438 212.769, 120.972 212.583, 121.238 211.786 C 121.946 209.661, 111.769 202.443, 109.722 203.619 C 109.050 204.005, 108.822 203.964, 109.216 203.528 C 109.965 202.698, 105.889 199, 104.227 199 C 103.701 199, 102.088 198.071, 100.645 196.935 C 99.201 195.799, 97.495 195.194, 96.855 195.590 C 96.197 195.996, 95.958 195.877, 96.305 195.315 C 97.084 194.056, 84.957 186.803, 83.201 187.477 C 82.483 187.752, 82.154 187.560, 82.469 187.050 C 82.784 186.540, 82.245 185.673, 81.271 185.124 C 78.607 183.621, 80.410 182.510, 90.500 179.438 C 95.450 177.931, 100.400 176.219, 101.500 175.634 C 102.600 175.049, 103.725 174.536, 104 174.493 C 106.285 174.136, 116.922 170.277, 123.651 167.364 C 125.384 166.614, 127.345 166, 128.008 166 C 128.671 166, 128.960 165.339, 128.651 164.532 C 128.341 163.725, 128.587 162.755, 129.198 162.378 C 129.871 161.962, 130.028 162.146, 129.595 162.845 C 129.203 163.480, 129.307 164, 129.826 164 C 131.364 164, 133.518 159.905, 135.350 153.500 C 136.293 150.200, 137.475 146.150, 137.976 144.500 C 140.547 136.034, 144.379 118.614, 144.464 115 C 144.484 114.175, 145.062 112.600, 145.749 111.500 C 146.925 109.618, 147.078 109.603, 148.348 111.234 C 149.090 112.188, 150.028 112.638, 150.432 112.234 C 150.836 111.831, 151.023 111.950, 150.847 112.500 C 150.328 114.122, 158.090 125.062, 159.251 124.345 C 159.833 123.985, 160.033 124.137, 159.696 124.683 C 158.894 125.980, 161.862 130.203, 163.057 129.465 C 163.563 129.152, 163.727 129.548, 163.421 130.344 C 163.102 131.177, 163.839 132.474, 165.155 133.396 C 166.415 134.278, 167.127 135, 166.738 135 C 166.349 135, 167.822 137.363, 170.011 140.250 C 172.200 143.137, 173.993 145.864, 173.996 146.309 C 173.998 146.754, 174.563 146.794, 175.250 146.399 C 175.938 146.003, 176.184 146.030, 175.798 146.459 C 174.515 147.881, 180.284 152.019, 184.500 152.701 C 189.701 153.542, 207.834 152.726, 224.406 150.905 C 233.738 149.879, 235.470 149.915, 236.406 151.154 C 237.629 152.771, 243.392 153.458, 255.965 153.483 L 264.431 153.500 265.304 149.101 C 267.360 138.740, 260.267 128.322, 249.520 125.917 C 244.030 124.688, 228.140 125.529, 197.899 128.647 L 192.299 129.225 178.993 110.862 C 171.674 100.763, 163.854 90.578, 161.613 88.228 C 154.038 80.282, 144.988 78.006, 136.429 81.893 M 443 87.944 C 443 89.250, 448.954 98.858, 448.981 97.595 C 448.991 97.097, 449.931 97.533, 451.069 98.563 C 452.207 99.593, 451.274 97.643, 448.995 94.231 C 444.771 87.905, 443 86.048, 443 87.944 M 486.777 101.401 C 482.220 104.108, 480.900 105.336, 483.530 104.419 C 484.803 103.975, 484.262 104.873, 482 106.957 L 478.500 110.181 482.500 107.254 C 484.700 105.644, 487.962 103.481, 489.750 102.448 C 493.054 100.538, 494.017 98.923, 491.750 99.094 C 491.063 99.146, 488.824 100.184, 486.777 101.401 M 540.762 105.707 C 542.006 105.946, 543.806 105.937, 544.762 105.687 C 545.718 105.437, 544.700 105.241, 542.500 105.252 C 540.300 105.263, 539.518 105.468, 540.762 105.707 M 558.762 105.707 C 560.006 105.946, 561.806 105.937, 562.762 105.687 C 563.718 105.437, 562.700 105.241, 560.500 105.252 C 558.300 105.263, 557.518 105.468, 558.762 105.707 M 453.175 111.668 C 453.079 113.961, 452.741 116.661, 452.424 117.668 C 451.884 119.389, 451.917 119.394, 452.981 117.737 C 453.604 116.768, 453.942 114.068, 453.732 111.737 L 453.349 107.500 453.175 111.668 M 145.047 122.750 C 143.837 128.113, 141.486 137.675, 139.821 144 C 133.926 166.410, 134.220 166.138, 105.098 176.012 C 92.952 180.130, 83.015 183.725, 83.018 184 C 83.020 184.275, 86.504 186.478, 90.761 188.895 C 106.472 197.818, 122.085 208.245, 124.527 211.446 C 126.166 213.596, 127.310 216.784, 127.819 220.620 L 128.598 226.500 129.187 217.772 C 129.608 211.540, 130.347 208.141, 131.773 205.889 L 133.770 202.735 131.635 198.117 C 129.884 194.330, 129.500 191.613, 129.500 183 C 129.500 160.035, 138.903 152.487, 166.848 153.021 C 180.101 153.274, 179.881 153.305, 177.339 151.525 C 176.180 150.713, 169.067 141.713, 161.532 131.525 C 153.996 121.336, 147.700 113, 147.539 113 C 147.378 113, 146.257 117.388, 145.047 122.750 M 489.662 116.957 C 478.778 120.792, 474.685 123.013, 478.550 122.986 C 481.872 122.963, 485.005 121.818, 484.405 120.846 C 484.077 120.316, 485.043 120.157, 486.666 120.475 C 488.798 120.893, 489.011 120.818, 487.526 120.174 C 485.938 119.484, 487.310 118.713, 494.526 116.237 C 499.461 114.544, 502.825 113.153, 502 113.148 C 501.175 113.142, 495.623 114.856, 489.662 116.957 M 447.946 123.561 C 446.051 125.519, 441.430 129.221, 437.678 131.787 C 430.955 136.384, 429.917 138.646, 435.965 135.518 C 437.798 134.570, 438.781 133.454, 438.369 132.787 C 437.927 132.073, 438.223 131.872, 439.177 132.238 C 440.004 132.555, 441.316 132.413, 442.091 131.923 C 443.156 131.248, 443.184 131.027, 442.203 131.015 C 441.490 131.007, 443.515 128.541, 446.703 125.536 C 449.892 122.532, 452.251 120.057, 451.946 120.036 C 451.642 120.016, 449.842 121.602, 447.946 123.561 M 476.558 143.389 C 479.680 148.092, 482 150.314, 482 148.602 C 482 147.535, 476.956 139.498, 476.278 139.485 C 475.850 139.476, 474.900 139.089, 474.166 138.624 C 473.433 138.159, 474.509 140.303, 476.558 143.389 M 222 153 C 219.181 153.593, 219.899 153.762, 225.691 153.868 C 229.646 153.941, 233.160 153.550, 233.500 153 C 234.207 151.856, 227.437 151.856, 222 153 M 316.500 154.150 C 306.829 155.493, 299.435 161.957, 296.930 171.259 C 296.277 173.685, 295.988 183.783, 296.182 197.358 C 296.497 219.323, 296.522 219.537, 299.187 224.070 C 302.231 229.248, 307.616 233.327, 313.500 234.912 C 316.125 235.619, 336.167 235.991, 371.816 235.994 C 427.125 236, 428.864 235.891, 431.551 232.249 C 432.441 231.042, 433.282 231.182, 437.051 233.162 C 441.209 235.347, 442.615 235.500, 458.529 235.500 C 473.023 235.500, 476.176 235.221, 479.713 233.628 C 483.857 231.761, 483.879 231.762, 487.546 234.028 C 491.187 236.279, 491.470 236.295, 516.705 235.737 L 542.187 235.172 539.843 237.774 L 537.500 240.376 540.238 238.303 C 541.744 237.163, 545.113 235.910, 547.725 235.519 C 553.836 234.602, 556.968 232.939, 560.797 228.578 C 563.625 225.357, 565.980 219.679, 565.994 216.048 C 565.997 215.249, 567.462 213, 569.250 211.050 C 572.451 207.558, 572.454 207.546, 569.445 210.252 C 567.765 211.763, 566.078 213, 565.695 213 C 565.313 213, 565 210.915, 565 208.366 C 565 205.817, 564.467 201.952, 563.815 199.777 C 562.577 195.645, 562.546 195.753, 566.903 189.039 C 567.781 187.685, 567.990 186.892, 567.366 187.276 C 566.559 187.773, 566.117 185.128, 565.835 178.110 C 565.481 169.279, 565.127 167.740, 562.461 163.427 C 560.354 160.020, 558.029 157.862, 554.517 156.055 L 549.552 153.500 492.026 153.349 C 460.305 153.266, 432.870 153.605, 430.866 154.106 C 424.716 155.644, 424.552 156.224, 424 178.400 L 423.500 198.500 416 198.500 L 408.500 198.500 408.400 179.803 C 408.292 159.739, 407.818 157.641, 402.750 154.816 C 400.091 153.334, 326.469 152.766, 316.500 154.150 M 200.155 154.730 C 197.053 155.111, 196.944 155.242, 198.655 156.539 C 201.242 158.498, 203.392 158.329, 205.500 156 C 207.529 153.758, 207.719 153.802, 200.155 154.730 M 144.922 163.274 C 140.050 166.557, 137.336 171.159, 136.547 177.472 C 135.099 189.056, 137.739 197.526, 144.319 202.408 C 146.816 204.260, 148.935 204.557, 162.819 205 C 175.869 205.416, 178.500 205.752, 178.500 207 C 178.500 208.275, 175.466 208.541, 158.274 208.771 C 139.284 209.025, 137.984 209.162, 136.988 211.022 C 135.842 213.165, 135.832 226.110, 136.975 227.960 C 137.475 228.769, 145.641 229.007, 165.667 228.795 L 193.660 228.500 197.331 225.698 C 204.182 220.470, 204.500 219.107, 204.500 195 C 204.500 174.217, 204.421 173.362, 202.132 169.368 C 197.680 161.599, 195.400 161, 170.262 161 C 149.070 161, 148.177 161.080, 144.922 163.274 M 209.680 161.653 C 209.306 162.027, 209 166.935, 209 172.560 C 209 180.962, 209.282 182.894, 210.582 183.393 C 211.452 183.727, 220.902 184, 231.582 184 C 249.737 184, 251 184.119, 251 185.831 C 251 187.213, 248.685 188.579, 241.570 191.395 C 236.383 193.448, 231.646 195.722, 231.043 196.448 C 230.325 197.314, 230.042 203.067, 230.223 213.135 L 230.500 228.500 243 228.500 L 255.500 228.500 255.788 219.835 C 256.067 211.418, 256.153 211.142, 258.788 210.221 C 260.279 209.699, 264.996 207.815, 269.270 206.035 L 277.040 202.797 276.770 182.148 L 276.500 161.500 243.430 161.237 C 225.241 161.092, 210.054 161.279, 209.680 161.653 M 312.500 162.403 C 308.818 164.050, 305.485 167.573, 304.067 171.315 C 303.436 172.979, 303 182.601, 303 194.853 C 303 214.368, 303.131 215.834, 305.250 219.994 C 306.853 223.143, 308.775 225.076, 311.937 226.722 C 316.295 228.990, 316.857 229.027, 343.437 228.766 L 370.500 228.500 370.500 217.500 L 370.500 206.500 349.764 206.230 C 325.646 205.915, 327.713 207.183, 328.205 193 L 328.500 184.500 349.500 183.949 C 361.050 183.645, 370.628 183.308, 370.784 183.199 C 370.940 183.089, 370.940 178.162, 370.784 172.250 L 370.500 161.500 343 161.281 C 321.771 161.112, 314.816 161.368, 312.500 162.403 M 375.466 162.227 C 375.194 162.936, 375.091 178.138, 375.236 196.008 L 375.500 228.500 400.500 228.500 L 425.500 228.500 425.500 217.500 L 425.500 206.500 413.500 206 L 401.500 205.500 401 183.500 L 400.500 161.500 388.230 161.219 C 378.932 161.006, 375.841 161.250, 375.466 162.227 M 431.667 161.667 C 431.300 162.033, 431 174.313, 431 188.955 C 431 214.586, 431.084 215.740, 433.250 219.994 C 434.849 223.134, 436.776 225.076, 439.907 226.706 C 443.895 228.782, 445.659 229, 458.445 229 C 471.112 229, 473.038 228.767, 477.034 226.750 C 479.971 225.267, 482.255 223.136, 483.729 220.500 C 485.895 216.629, 485.968 215.608, 485.984 188.750 L 486 161 473.500 161 L 461 161 461 181.918 C 461 203.367, 460.727 206, 458.500 206 C 456.273 206, 456 203.367, 456 181.918 L 456 161 444.167 161 C 437.658 161, 432.033 161.300, 431.667 161.667 M 490.458 165.432 C 489.363 172.732, 490.344 226.745, 491.594 227.994 C 492.349 228.750, 501.686 228.997, 521.765 228.794 L 550.842 228.500 553.550 226 C 557.487 222.365, 559 217.969, 559 210.167 C 559 201.968, 556.917 198.450, 551.457 197.426 C 548.963 196.958, 548 196.251, 548 194.889 C 548 193.526, 548.717 193, 550.577 193 C 552.092 193, 554.359 191.795, 556.077 190.077 C 558.800 187.354, 559 186.628, 559 179.478 C 559 170.470, 557.142 165.667, 552.580 162.886 C 549.753 161.162, 547.105 161.007, 520.311 161.004 L 491.123 161 490.458 165.432 M 162.471 182.047 C 161.115 184.240, 163.781 185.090, 171.097 184.797 C 176.879 184.565, 178.500 184.172, 178.500 183 C 178.500 181.822, 176.852 181.438, 170.834 181.209 C 165.927 181.023, 162.917 181.325, 162.471 182.047 M 516.446 182.087 C 515.116 184.239, 517.824 185.089, 525.086 184.797 C 531.191 184.552, 532.537 184.195, 532.813 182.750 C 533.108 181.201, 532.226 181, 525.132 181 C 520.440 181, 516.840 181.451, 516.446 182.087 M 218.993 190.935 C 217.614 191.354, 215.559 191.556, 214.426 191.383 C 212.587 191.102, 212.395 191.521, 212.643 195.284 C 213.249 204.470, 216.867 217.799, 218.352 216.314 C 218.767 215.900, 218.817 216.314, 218.464 217.234 C 218.111 218.154, 218.537 219.928, 219.411 221.176 C 220.285 222.424, 221 224.245, 221 225.223 C 221 226.200, 221.338 227, 221.750 227 C 222.775 227, 222.705 203.818, 221.676 202.225 C 221.148 201.409, 221.306 201.049, 222.114 201.225 C 222.876 201.391, 223.639 199.993, 224.039 197.699 C 224.403 195.609, 225.219 193.381, 225.851 192.749 C 226.483 192.117, 227 191.240, 227 190.800 C 227 189.820, 222.402 189.898, 218.993 190.935 M 335.394 191.416 C 335.095 192.194, 334.997 194.107, 335.175 195.666 L 335.500 198.500 351.638 198.774 L 367.776 199.048 368.248 195.274 C 368.508 193.198, 368.532 191.162, 368.302 190.750 C 368.071 190.338, 360.694 190, 351.910 190 C 339.058 190, 335.831 190.277, 335.394 191.416 M 516.471 206.047 C 515.115 208.240, 517.781 209.090, 525.097 208.797 C 530.879 208.565, 532.500 208.172, 532.500 207 C 532.500 205.822, 530.852 205.438, 524.834 205.209 C 519.927 205.023, 516.917 205.325, 516.471 206.047 M 212 211.208 C 212 219.364, 206.707 228.330, 199.344 232.645 C 196.955 234.045, 195.003 235.485, 195.006 235.845 C 195.009 236.205, 199.172 238.010, 204.256 239.856 C 209.340 241.702, 216.344 244.333, 219.820 245.703 C 223.296 247.073, 226.368 247.965, 226.647 247.686 C 227.107 247.226, 213.393 209.063, 212.416 208.083 C 212.187 207.854, 212 209.260, 212 211.208 M 129.510 236.250 C 129.780 241.613, 130.288 250.293, 130.640 255.541 L 131.280 265.081 139.390 257.268 C 143.850 252.971, 150.817 246.428, 154.872 242.727 L 162.243 236 148.844 236 C 133.883 236, 131.784 235.298, 130.027 229.705 C 129.260 227.262, 129.137 228.817, 129.510 236.250 M 448.647 288.114 C 444.328 290.321, 440.989 292.323, 441.228 292.561 C 442.103 293.436, 450.984 289.783, 450.376 288.799 C 449.980 288.159, 450.625 288.034, 452.125 288.458 C 453.956 288.977, 454.157 288.891, 453 288.081 C 452.175 287.503, 451.976 287.024, 452.559 287.015 C 453.141 287.007, 454.491 286.339, 455.559 285.532 C 458.599 283.232, 457.107 283.790, 448.647 288.114" stroke="none" fill="#fae29f" fill-rule="evenodd"/><path d="M 136.429 81.893 C 128.697 85.405, 123.949 93.895, 120.991 109.500 C 120.365 112.800, 118.245 122.157, 116.280 130.294 C 113.637 141.232, 112.224 145.345, 110.858 146.076 C 109.842 146.620, 99.038 150.423, 86.850 154.528 C 74.662 158.633, 62.700 163.158, 60.268 164.583 C 47.384 172.133, 46.434 189.366, 58.338 199.558 C 60.627 201.518, 67.675 206.014, 74 209.549 C 80.325 213.083, 89.325 218.383, 94 221.326 L 102.500 226.676 103.840 250.588 C 105.486 279.969, 106.822 285.737, 113.380 291.783 C 120.092 297.969, 128.822 298.662, 137.846 293.726 C 140.083 292.501, 149.604 283.993, 159.004 274.819 C 175.071 259.137, 176.257 258.191, 178.798 259.029 C 191.664 263.275, 206.484 268.597, 216.500 272.570 C 226.336 276.471, 229.672 277.340, 235 277.386 C 243.997 277.464, 251.001 273.611, 254.788 266.500 C 257.205 261.960, 256.837 250.878, 254.023 243.500 C 250.629 234.603, 250.807 234.719, 241.547 235.386 C 228.707 236.310, 227.014 236.218, 225.804 234.529 C 225.422 233.995, 224.826 233.840, 224.481 234.186 C 224.136 234.531, 224.976 237.218, 226.349 240.157 C 227.721 243.096, 228.992 246.625, 229.172 248 C 229.447 250.094, 229.125 250.460, 227.191 250.251 C 225.921 250.115, 222.546 248.904, 219.691 247.561 C 211.866 243.881, 205.412 241.917, 203.348 242.588 C 201.998 243.027, 201.859 242.932, 202.830 242.236 C 203.803 241.539, 202.785 240.833, 199.039 239.608 C 196.223 238.686, 193.417 238.242, 192.805 238.621 C 192.178 239.008, 191.969 238.859, 192.326 238.282 C 193.128 236.984, 182.265 236.007, 171.850 236.440 C 163.767 236.776, 161.541 237.449, 162.638 239.224 C 163.042 239.877, 162.843 240.021, 162.138 239.585 C 161.436 239.151, 158.683 241.091, 155.263 244.431 C 152.126 247.494, 149.160 250, 148.672 250 C 148.185 250, 148.054 250.698, 148.382 251.552 C 148.751 252.514, 148.566 252.850, 147.896 252.436 C 147.296 252.065, 143.297 255.446, 138.900 260.043 C 134.546 264.594, 130.697 268.030, 130.346 267.679 C 129.585 266.918, 129.493 265.898, 127.990 241.500 C 126.810 222.346, 125.702 215, 123.993 215 C 123.481 215, 123.352 214.247, 123.705 213.326 C 124.200 212.036, 123.945 211.807, 122.590 212.327 C 121.438 212.769, 120.972 212.583, 121.238 211.786 C 121.946 209.661, 111.769 202.443, 109.722 203.619 C 109.050 204.005, 108.822 203.964, 109.216 203.528 C 109.965 202.698, 105.889 199, 104.227 199 C 103.701 199, 102.088 198.071, 100.645 196.935 C 99.201 195.799, 97.495 195.194, 96.855 195.590 C 96.197 195.996, 95.958 195.877, 96.305 195.315 C 97.084 194.056, 84.957 186.803, 83.201 187.477 C 82.483 187.752, 82.154 187.560, 82.469 187.050 C 82.784 186.540, 82.245 185.673, 81.271 185.124 C 78.607 183.621, 80.410 182.510, 90.500 179.438 C 95.450 177.931, 100.400 176.219, 101.500 175.634 C 102.600 175.049, 103.725 174.536, 104 174.493 C 106.285 174.136, 116.922 170.277, 123.651 167.364 C 125.384 166.614, 127.345 166, 128.008 166 C 128.671 166, 128.960 165.339, 128.651 164.532 C 128.341 163.725, 128.587 162.755, 129.198 162.378 C 129.871 161.962, 130.028 162.146, 129.595 162.845 C 129.203 163.480, 129.307 164, 129.826 164 C 131.364 164, 133.518 159.905, 135.350 153.500 C 136.293 150.200, 137.475 146.150, 137.976 144.500 C 140.547 136.034, 144.379 118.614, 144.464 115 C 144.484 114.175, 145.062 112.600, 145.749 111.500 C 146.925 109.618, 147.078 109.603, 148.348 111.234 C 149.090 112.188, 150.028 112.638, 150.432 112.234 C 150.836 111.831, 151.023 111.950, 150.847 112.500 C 150.328 114.122, 158.090 125.062, 159.251 124.345 C 159.833 123.985, 160.033 124.137, 159.696 124.683 C 158.894 125.980, 161.862 130.203, 163.057 129.465 C 163.563 129.152, 163.727 129.548, 163.421 130.344 C 163.116 131.141, 163.735 132.402, 164.798 133.146 C 165.861 133.891, 166.798 134.833, 166.879 135.240 C 167.095 136.318, 173.163 144.953, 175.500 147.509 C 177.811 150.036, 181.624 152.236, 184.500 152.701 C 189.701 153.542, 207.834 152.726, 224.406 150.905 C 233.738 149.879, 235.470 149.915, 236.406 151.154 C 237.629 152.771, 243.392 153.458, 255.965 153.483 L 264.431 153.500 265.304 149.101 C 267.360 138.740, 260.267 128.322, 249.520 125.917 C 244.030 124.688, 228.140 125.529, 197.899 128.647 L 192.299 129.225 178.993 110.862 C 171.674 100.763, 163.854 90.578, 161.613 88.228 C 154.038 80.282, 144.988 78.006, 136.429 81.893 M 449.149 97.500 C 449.400 98.050, 450.435 100.300, 451.449 102.500 C 454.045 108.131, 454.572 114.994, 452.688 118.636 C 451.167 121.578, 445.275 127.443, 439.500 131.764 C 437.037 133.607, 437.575 133.489, 442.500 131.106 C 458.186 123.517, 464.059 125.020, 474.836 139.385 C 477.652 143.139, 477.578 142.075, 474.613 136.217 C 467.729 122.613, 469.192 117.043, 482.500 106.179 L 486.500 102.914 481.483 105.356 C 468.263 111.790, 462.974 111.247, 454.596 102.596 C 451.349 99.243, 448.898 96.950, 449.149 97.500 M 542.500 105.599 C 527.800 106.999, 511.223 110.650, 495.812 115.882 C 487.530 118.693, 480.595 121.850, 485.500 120.576 C 507.865 114.765, 529.986 113.211, 545 116.395 C 575.493 122.861, 585.642 145.949, 572.128 178.108 C 570.370 182.293, 567.534 187.918, 565.827 190.608 C 562.911 195.202, 562.792 195.760, 563.861 199.764 C 564.488 202.110, 565 206.047, 565 208.514 C 565 210.981, 565.428 213, 565.952 213 C 567.340 213, 578.205 199.833, 584.930 190 C 606.156 158.965, 608.538 132.094, 591.399 117.045 C 586.877 113.075, 577.529 108.668, 570.500 107.193 C 564.705 105.976, 548.329 105.044, 542.500 105.599 M 144.922 163.274 C 140.050 166.557, 137.336 171.159, 136.547 177.472 C 135.099 189.056, 137.739 197.526, 144.319 202.408 C 146.816 204.260, 148.935 204.557, 162.819 205 C 175.869 205.416, 178.500 205.752, 178.500 207 C 178.500 208.275, 175.466 208.541, 158.274 208.771 C 139.284 209.025, 137.984 209.162, 136.988 211.022 C 135.842 213.165, 135.832 226.110, 136.975 227.960 C 137.475 228.769, 145.641 229.007, 165.667 228.795 L 193.660 228.500 197.331 225.698 C 204.182 220.470, 204.500 219.107, 204.500 195 C 204.500 174.217, 204.421 173.362, 202.132 169.368 C 197.680 161.599, 195.400 161, 170.262 161 C 149.070 161, 148.177 161.080, 144.922 163.274 M 209.680 161.653 C 209.306 162.027, 209 166.935, 209 172.560 C 209 180.962, 209.282 182.894, 210.582 183.393 C 211.452 183.727, 220.902 184, 231.582 184 C 249.737 184, 251 184.119, 251 185.831 C 251 187.213, 248.685 188.579, 241.570 191.395 C 236.383 193.448, 231.646 195.722, 231.043 196.448 C 230.325 197.314, 230.042 203.067, 230.223 213.135 L 230.500 228.500 243 228.500 L 255.500 228.500 255.788 219.835 C 256.067 211.418, 256.153 211.142, 258.788 210.221 C 260.279 209.699, 264.996 207.815, 269.270 206.035 L 277.040 202.797 276.770 182.148 L 276.500 161.500 243.430 161.237 C 225.241 161.092, 210.054 161.279, 209.680 161.653 M 312.500 162.403 C 308.818 164.050, 305.485 167.573, 304.067 171.315 C 303.436 172.979, 303 182.601, 303 194.853 C 303 214.368, 303.131 215.834, 305.250 219.994 C 306.853 223.143, 308.775 225.076, 311.937 226.722 C 316.295 228.990, 316.857 229.027, 343.437 228.766 L 370.500 228.500 370.500 217.500 L 370.500 206.500 349.764 206.230 C 325.646 205.915, 327.713 207.183, 328.205 193 L 328.500 184.500 349.500 183.949 C 361.050 183.645, 370.628 183.308, 370.784 183.199 C 370.940 183.089, 370.940 178.162, 370.784 172.250 L 370.500 161.500 343 161.281 C 321.771 161.112, 314.816 161.368, 312.500 162.403 M 375.466 162.227 C 375.194 162.936, 375.091 178.138, 375.236 196.008 L 375.500 228.500 400.500 228.500 L 425.500 228.500 425.500 217.500 L 425.500 206.500 413.500 206 L 401.500 205.500 401 183.500 L 400.500 161.500 388.230 161.219 C 378.932 161.006, 375.841 161.250, 375.466 162.227 M 431.667 161.667 C 431.300 162.033, 431 174.313, 431 188.955 C 431 214.586, 431.084 215.740, 433.250 219.994 C 434.849 223.134, 436.776 225.076, 439.907 226.706 C 443.895 228.782, 445.659 229, 458.445 229 C 471.112 229, 473.038 228.767, 477.034 226.750 C 479.971 225.267, 482.255 223.136, 483.729 220.500 C 485.895 216.629, 485.968 215.608, 485.984 188.750 L 486 161 473.500 161 L 461 161 461 181.918 C 461 203.367, 460.727 206, 458.500 206 C 456.273 206, 456 203.367, 456 181.918 L 456 161 444.167 161 C 437.658 161, 432.033 161.300, 431.667 161.667 M 490.458 165.432 C 489.363 172.732, 490.344 226.745, 491.594 227.994 C 492.349 228.750, 501.686 228.997, 521.765 228.794 L 550.842 228.500 553.550 226 C 557.487 222.365, 559 217.969, 559 210.167 C 559 201.968, 556.917 198.450, 551.457 197.426 C 548.963 196.958, 548 196.251, 548 194.889 C 548 193.526, 548.717 193, 550.577 193 C 552.092 193, 554.359 191.795, 556.077 190.077 C 558.800 187.354, 559 186.628, 559 179.478 C 559 170.470, 557.142 165.667, 552.580 162.886 C 549.753 161.162, 547.105 161.007, 520.311 161.004 L 491.123 161 490.458 165.432 M 162.471 182.047 C 161.115 184.240, 163.781 185.090, 171.097 184.797 C 176.879 184.565, 178.500 184.172, 178.500 183 C 178.500 181.822, 176.852 181.438, 170.834 181.209 C 165.927 181.023, 162.917 181.325, 162.471 182.047 M 516.446 182.087 C 515.116 184.239, 517.824 185.089, 525.086 184.797 C 531.191 184.552, 532.537 184.195, 532.813 182.750 C 533.108 181.201, 532.226 181, 525.132 181 C 520.440 181, 516.840 181.451, 516.446 182.087 M 218.993 190.935 C 217.614 191.354, 215.559 191.556, 214.426 191.383 C 212.587 191.102, 212.395 191.521, 212.643 195.284 C 213.249 204.470, 216.867 217.799, 218.352 216.314 C 218.767 215.900, 218.817 216.314, 218.464 217.234 C 218.111 218.154, 218.537 219.928, 219.411 221.176 C 220.285 222.424, 221 224.245, 221 225.223 C 221 226.200, 221.338 227, 221.750 227 C 222.775 227, 222.705 203.818, 221.676 202.225 C 221.148 201.409, 221.306 201.049, 222.114 201.225 C 222.876 201.391, 223.639 199.993, 224.039 197.699 C 224.403 195.609, 225.219 193.381, 225.851 192.749 C 226.483 192.117, 227 191.240, 227 190.800 C 227 189.820, 222.402 189.898, 218.993 190.935 M 516.471 206.047 C 515.115 208.240, 517.781 209.090, 525.097 208.797 C 530.879 208.565, 532.500 208.172, 532.500 207 C 532.500 205.822, 530.852 205.438, 524.834 205.209 C 519.927 205.023, 516.917 205.325, 516.471 206.047 M 521.782 241.329 C 504.717 256.160, 483.486 270.592, 461.265 282.466 C 455.124 285.748, 450.262 288.595, 450.460 288.793 C 451.184 289.517, 471.826 280.673, 483.500 274.637 C 498.850 266.700, 514.574 256.854, 528.553 246.426 C 543.763 235.079, 543.811 235, 535.654 235 L 529.064 235 521.782 241.329" stroke="none" fill="#e73279" fill-rule="evenodd"/></svg>