<?xml version="1.0" encoding="UTF-8"?>
<!DOCTYPE svg PUBLIC "-//W3C//DTD SVG 1.1//EN" "http://www.w3.org/Graphics/SVG/1.1/DTD/svg11.dtd">
<!-- Creator: CorelDRAW X7 -->
<svg xmlns="http://www.w3.org/2000/svg" xml:space="preserve" width="42.3332mm" height="9.3132mm" version="1.1" style="shape-rendering:geometricPrecision; text-rendering:geometricPrecision; image-rendering:optimizeQuality; fill-rule:evenodd; clip-rule:evenodd"
viewBox="0 0 4233 931"
 xmlns:xlink="http://www.w3.org/1999/xlink">
 <defs>
  <style type="text/css">
   <![CDATA[
    .str0 {stroke:#F95959;stroke-width:20}
    .fil4 {fill:#521136}
    .fil3 {fill:#CA5618}
    .fil2 {fill:#F45E57}
    .fil0 {fill:#F95959}
    .fil1 {fill:#F45E57;fill-rule:nonzero}
   ]]>
  </style>
 </defs>
 <g id="Layer_x0020_1">
  <metadata id="CorelCorpID_0Corel-Layer"/>
  <path class="fil0 str0" d="M315 765c-105,-42 -160,-90 -188,-157 -28,-65 -31,-149 -32,-262 45,6 137,9 220,-51 82,60 174,57 219,51 0,113 -4,197 -32,262 -28,67 -82,115 -187,157zm227 -140c33,-78 35,-174 35,-305l0 -28 -27 8c0,0 -22,6 -54,6l-8 23 -34 -11 5 -13c-40,-4 -88,-18 -131,-54l-13 -11 -14 11c-43,36 -90,50 -130,54l4 13 -34 11 -7 -23c-33,0 -55,-6 -55,-6l-27 -8 0 28c0,131 2,227 35,305 34,79 98,136 220,183l8 3 7 -3c123,-47 186,-104 220,-183z"/>
  <path class="fil1" d="M655 532l0 -66c0,-59 5,-97 14,-113 9,-17 30,-39 60,-68 31,-28 54,-42 69,-42 26,0 56,15 89,45 34,30 55,63 64,98l-78 55c-8,-26 -20,-49 -36,-70 -17,-22 -29,-33 -35,-33 -12,0 -25,12 -40,35 -7,9 -10,40 -10,93l0 66c0,54 3,85 10,93 15,23 28,34 40,34 6,0 18,-9 35,-28 16,-18 28,-39 36,-61l78 55c-9,32 -30,62 -64,89 -33,27 -63,41 -89,41 -15,0 -38,-14 -69,-43 -30,-28 -51,-50 -60,-67 -9,-16 -14,-54 -14,-113z"/>
  <path id="1" class="fil1" d="M1115 746l-93 0 0 -386c0,-24 -3,-42 -9,-55 -5,-13 -14,-24 -27,-34l78 -55c34,27 51,65 51,114l0 66c29,-26 51,-39 64,-39 13,0 34,13 63,39 29,26 44,52 44,77l0 137c0,24 2,43 8,56 6,13 15,25 27,34l-78 55c-34,-27 -51,-65 -51,-115l0 -157c0,-8 -4,-16 -13,-25 -8,-8 -16,-13 -23,-13 -8,0 -21,10 -41,30l0 271z"/>
  <path id="2" class="fil1" d="M1617 555l0 25 -171 0c0,29 4,51 11,67 2,6 6,12 12,18 7,6 13,9 19,9 7,0 15,-6 25,-17 10,-12 18,-25 24,-41l72 51c-12,24 -32,44 -58,62 -26,17 -47,26 -63,26 -16,0 -39,-13 -70,-38 -30,-25 -49,-44 -55,-58 -7,-14 -10,-48 -10,-103 0,-55 3,-90 10,-103 6,-14 25,-34 55,-59 31,-25 53,-37 67,-37 14,0 36,12 67,37 30,25 49,45 55,59 7,13 10,48 10,102zm-98 -89c-3,-6 -9,-13 -16,-19 -7,-6 -14,-9 -21,-9 -6,0 -13,6 -21,19 -8,12 -13,31 -15,56l81 0c-2,-25 -4,-41 -8,-47z"/>
  <path id="3" class="fil1" d="M1785 746l-94 0 0 -244c0,-24 -2,-42 -8,-55 -6,-14 -15,-25 -27,-35l78 -55c17,15 30,31 39,49 35,-33 59,-49 74,-49 14,0 36,13 65,39 29,26 43,52 43,77l0 137c0,24 3,43 9,56 5,13 14,25 26,34l-77 55c-34,-27 -51,-65 -51,-115l0 -157c0,-8 -4,-16 -13,-25 -8,-8 -16,-13 -24,-13 -7,0 -20,10 -40,30l0 271z"/>
  <path id="4" class="fil1" d="M2140 746l-93 0 0 -244c0,-24 -3,-42 -8,-55 -6,-14 -15,-25 -27,-35l78 -55c17,15 30,31 38,49 35,-33 60,-49 74,-49 15,0 36,13 65,39 29,26 44,52 44,77l0 137c0,24 3,43 8,56 6,13 15,25 27,34l-78 55c-34,-27 -51,-65 -51,-115l0 -157c0,-8 -4,-16 -12,-25 -9,-8 -17,-13 -24,-13 -7,0 -21,10 -41,30l0 271z"/>
  <path id="5" class="fil1" d="M2647 365l0 290c3,17 14,31 33,44l-64 54c-6,-4 -13,-11 -22,-22 -9,-11 -17,-22 -23,-33 -39,38 -66,57 -82,57 -11,0 -30,-13 -55,-38 -25,-25 -41,-45 -47,-60 -6,-16 -9,-50 -9,-101 0,-52 3,-85 9,-101 6,-15 22,-36 47,-61 25,-25 44,-37 55,-37 17,0 43,17 80,51l8 -43 70 0zm-99 108c-3,-6 -10,-12 -20,-18 -10,-7 -18,-10 -23,-10 -5,0 -10,3 -16,9 -6,6 -10,12 -12,17 -6,9 -9,37 -9,85 0,48 3,76 9,84 2,5 6,11 12,17 6,6 11,9 16,9 5,0 13,-3 23,-9 10,-6 17,-12 20,-17 3,-6 5,-33 5,-83 0,-50 -1,-78 -5,-84z"/>
  <path id="6" class="fil1" d="M2719 365l93 0 0 245c0,24 3,43 9,56 5,13 14,25 27,34l-78 55c-34,-27 -51,-65 -51,-115l0 -275zm48 -148c5,0 17,8 35,23 17,16 26,26 26,32 0,5 -9,15 -27,31 -18,16 -30,23 -34,23 -5,0 -17,-7 -35,-23 -18,-15 -27,-25 -27,-31 0,-5 9,-16 28,-31 18,-16 29,-24 34,-24z"/>
  <path id="7" class="fil1" d="M3042 532l0 -66c0,-59 5,-97 14,-113 10,-17 30,-39 61,-68 30,-28 53,-42 68,-42 26,0 56,15 90,45 33,30 54,63 63,98l-78 55c-8,-26 -20,-49 -36,-70 -17,-22 -28,-33 -35,-33 -12,0 -25,12 -40,35 -6,9 -9,40 -9,93l0 66c0,54 3,85 9,93 15,23 28,34 40,34 7,0 18,-9 35,-28 16,-18 28,-39 36,-61l78 55c-9,32 -30,62 -63,89 -34,27 -64,41 -90,41 -15,0 -38,-14 -68,-43 -31,-28 -51,-50 -61,-67 -9,-16 -14,-54 -14,-113z"/>
  <path id="8" class="fil1" d="M3388 216l93 0 0 394c0,24 3,43 9,56 5,13 14,25 26,34l-77 55c-34,-27 -51,-65 -51,-115l0 -424z"/>
  <path id="9" class="fil1" d="M3555 365l94 0 0 263c0,8 3,17 11,25 7,9 15,13 21,13 7,0 20,-9 41,-29l0 -272 94 0 0 381 -73 0 -8 -41c-35,33 -60,50 -74,50 -14,0 -36,-13 -64,-39 -28,-27 -42,-52 -42,-78l0 -273z"/>
  <path id="10" class="fil1" d="M3900 746l0 -386c0,-24 -2,-42 -8,-55 -6,-13 -15,-24 -27,-34l78 -55c34,27 51,65 51,114l0 64c28,-25 48,-37 61,-37 12,0 31,12 57,38 26,25 41,43 44,55 6,12 8,47 8,106 0,59 -2,94 -8,106 -3,11 -18,30 -44,55 -26,25 -44,38 -55,38 -17,0 -43,-17 -80,-52l-7 43 -70 0zm97 -107c4,5 10,12 20,18 11,6 18,9 23,9 6,0 11,-3 17,-9 6,-6 10,-12 13,-19 3,-6 4,-34 4,-82 0,-48 -1,-76 -4,-82 -3,-7 -7,-13 -13,-19 -6,-7 -11,-10 -16,-10 -5,0 -13,3 -23,10 -10,6 -17,12 -20,16 -4,8 -6,37 -6,86 0,48 2,76 5,82z"/>
  <path class="fil2" d="M307 808c-122,-47 -186,-104 -220,-183 -33,-78 -35,-174 -35,-305l0 -28 27 8c1,0 123,34 222,-49l14 -11 13 11c99,83 222,49 222,49l27 -8 0 28c0,131 -2,227 -35,305 -34,79 -97,136 -220,183l-7 3 -8 -3zm-180 -200l0 0c28,67 83,115 188,157 105,-42 159,-90 187,-157 28,-65 32,-149 32,-262 -45,6 -137,9 -219,-51 -83,60 -175,57 -220,51 1,113 4,197 32,262z"/>
  <path class="fil3" d="M122 376c1,21 1,41 2,62 1,22 3,43 5,65 3,20 6,41 12,61 5,20 12,40 23,58 16,28 39,50 66,69 26,18 55,33 85,45 29,-12 58,-27 85,-45 26,-19 49,-41 66,-69 10,-18 17,-38 23,-58 5,-20 9,-41 11,-61 3,-22 4,-43 5,-65 1,-21 2,-41 2,-62 -5,0 -10,1 -15,1 -7,0 -13,0 -19,-1 -29,-1 -58,-6 -85,-14 -26,-8 -50,-19 -73,-34 -23,15 -48,26 -74,34 -27,8 -56,13 -85,14 -6,1 -12,1 -18,1 -5,0 -10,-1 -16,-1zm-5 62l0 0c-1,-21 -2,-44 -2,-66l0 -3 4 0c6,0 13,0 19,1 6,0 12,-1 18,-1 29,-1 56,-6 83,-14 26,-8 51,-19 74,-34l2 -1 2 1c23,15 47,26 73,34 27,8 55,13 83,14 6,0 12,1 19,1 6,-1 12,-1 18,-1l4 0 0 3c0,22 0,45 -1,66 -1,22 -3,44 -6,66 -2,20 -6,42 -11,62 -6,21 -14,41 -24,59 -17,29 -41,53 -68,72 -27,19 -58,34 -88,46l-1 1 -2 -1c-30,-12 -60,-27 -87,-46 -28,-19 -51,-43 -68,-72 -11,-18 -19,-38 -24,-59 -6,-20 -10,-42 -12,-62 -3,-22 -4,-44 -5,-66z"/>
  <path class="fil2" d="M141 329l-37 -114 38 20c9,5 20,7 31,7 23,0 49,-9 71,-21 22,-13 40,-29 48,-45 3,-6 5,-11 5,-17l36 0c0,6 1,11 4,17 9,16 27,32 48,45 23,12 48,21 71,21l0 0c11,0 22,-2 31,-7l39 -20 -38 114 -34 -11 14 -41c-4,0 -8,0 -12,0l0 0c-29,0 -61,-10 -88,-25 -22,-12 -41,-28 -53,-45 -13,17 -32,33 -53,45 -28,15 -59,25 -89,25 -4,0 -7,0 -11,0l13 41 -34 11z"/>
  <path class="fil0" d="M315 168c14,0 26,-12 26,-26 0,-15 -12,-26 -26,-26 -15,0 -26,11 -26,26 0,14 11,26 26,26z"/>
  <path class="fil4" d="M315 117c-7,0 -13,3 -18,7 -4,5 -7,11 -7,18 0,7 3,13 7,17 5,5 11,8 18,8 7,0 13,-3 17,-8 5,-4 7,-10 7,-17 0,-7 -2,-13 -7,-18 -4,-4 -10,-7 -17,-7zm-20 5l0 0c5,-5 12,-8 20,-8 7,0 14,3 19,8 5,5 8,12 8,20 0,7 -3,14 -8,19 -5,5 -12,8 -19,8 -8,0 -15,-3 -20,-8 -5,-5 -8,-12 -8,-19 0,-8 3,-15 8,-20z"/>
  <path class="fil2" d="M121 262c14,0 26,-11 26,-26 0,-14 -12,-26 -26,-26 -15,0 -26,12 -26,26 0,15 11,26 26,26z"/>
  <path class="fil4" d="M121 212c-7,0 -13,2 -18,7 -4,4 -7,10 -7,17 0,7 3,13 7,18 5,4 11,7 18,7 6,0 13,-3 17,-7 5,-5 7,-11 7,-18 0,-7 -2,-13 -7,-17 -4,-5 -11,-7 -17,-7zm-20 5l0 0c5,-5 12,-8 20,-8 7,0 14,3 19,8 5,5 8,12 8,19 0,8 -3,15 -8,20 -5,5 -12,8 -19,8 -8,0 -15,-3 -20,-8 -5,-5 -8,-12 -8,-20 0,-7 3,-14 8,-19z"/>
  <path class="fil0" d="M508 262c14,0 26,-11 26,-26 0,-14 -12,-26 -26,-26 -14,0 -26,12 -26,26 0,15 12,26 26,26z"/>
  <path class="fil4" d="M508 212c-7,0 -13,2 -17,7 -5,4 -8,10 -8,17 0,7 3,13 8,18 4,4 10,7 17,7 7,0 13,-3 18,-7 4,-5 7,-11 7,-18 0,-7 -3,-13 -7,-17 -5,-5 -11,-7 -18,-7zm-19 5l0 0c5,-5 12,-8 19,-8 8,0 15,3 20,8 5,5 8,12 8,19 0,8 -3,15 -8,20 -5,5 -12,8 -20,8 -7,0 -14,-3 -19,-8 -5,-5 -8,-12 -8,-20 0,-7 3,-14 8,-19z"/>
  <path class="fil0" d="M447 468c13,36 10,75 -5,108 -15,32 -43,59 -80,73 -36,13 -75,10 -108,-5 -32,-15 -59,-43 -73,-80 -13,-36 -10,-75 5,-108 15,-32 43,-59 80,-73 16,-5 32,-8 49,-8 17,0 33,3 49,9l-19 49c-9,-4 -20,-6 -30,-6 -11,0 -21,2 -31,6 -23,8 -41,25 -50,46 -10,20 -12,44 -3,67 8,23 25,41 45,50 21,10 45,12 68,3 23,-8 41,-25 50,-45 10,-21 -13,26 0,0l53 -86z"/>
 </g>
</svg>
