<?xml version="1.0" encoding="UTF-8"?>
<!DOCTYPE svg PUBLIC "-//W3C//DTD SVG 1.1//EN" "http://www.w3.org/Graphics/SVG/1.1/DTD/svg11.dtd">
<!-- Creator: CorelDRAW X7 -->
<svg xmlns="http://www.w3.org/2000/svg" xml:space="preserve" width="42.3332mm" height="42.3332mm" version="1.1" style="shape-rendering:geometricPrecision; text-rendering:geometricPrecision; image-rendering:optimizeQuality; fill-rule:evenodd; clip-rule:evenodd"
viewBox="0 0 4233 4233"
 xmlns:xlink="http://www.w3.org/1999/xlink">
 <defs>
  <style type="text/css">
   <![CDATA[
    .fil0 {fill:white}
   ]]>
  </style>
 </defs>
 <g id="Layer_x0020_1">
  <metadata id="CorelCorpID_0Corel-Layer"/>
  <path class="fil0" d="M2122 4165c-741,-285 -1127,-629 -1330,-1110 -199,-471 -213,-1055 -213,-1844l0 -170 164 44c2,1 745,206 1342,-290l83 -69 83 69c597,496 1340,291 1342,290l164 -44 0 170c0,789 -14,1373 -213,1844 -203,481 -589,825 -1330,1110l-46 18 -46 -18zm-1091 -1211l0 0c171,403 502,698 1137,950 635,-252 966,-547 1137,-950 166,-394 189,-906 191,-1586 -271,37 -830,54 -1328,-309 -498,363 -1057,346 -1328,309 2,680 25,1192 191,1586z"/>
  <path class="fil0" d="M1004 1550c1,124 4,249 10,374 6,132 15,263 31,392 14,125 35,250 69,372 33,121 78,238 141,347 99,170 239,307 399,419 158,111 336,199 514,272 178,-73 356,-161 514,-272 160,-112 300,-249 399,-419 63,-109 108,-226 141,-347 33,-122 55,-247 69,-372 16,-129 25,-260 31,-392 6,-125 8,-250 9,-374 -30,1 -61,2 -92,2 -39,1 -77,0 -113,-1 -176,-8 -348,-37 -513,-87 -156,-49 -306,-117 -445,-206 -140,89 -289,157 -446,206 -164,50 -336,79 -513,87 -36,1 -74,2 -113,1 -30,0 -61,-1 -92,-2zm-34 376l0 0c-6,-132 -8,-266 -9,-399l0 -23 23 1c38,2 76,4 113,4 38,0 75,0 111,-2 172,-7 341,-35 502,-85 157,-48 307,-117 446,-208l12 -7 12 7c139,91 289,160 446,208 161,50 329,78 502,85 36,2 73,2 111,2 36,0 74,-2 113,-4l23 -1 0 23c-1,133 -3,267 -9,399 -6,133 -16,266 -32,395 -15,126 -36,254 -70,378 -34,125 -81,246 -146,358 -102,176 -247,317 -411,433 -164,115 -348,205 -531,280l-8 3 -8 -3c-184,-75 -367,-165 -531,-280 -165,-116 -309,-257 -412,-433 -65,-112 -111,-233 -145,-358 -34,-124 -56,-252 -71,-378 -15,-129 -25,-262 -31,-395z"/>
  <path class="fil0" d="M1117 1266l-226 -691 234 120c54,27 118,40 187,40 140,0 294,-50 428,-126 132,-75 241,-173 292,-272 17,-35 27,-68 27,-100l218 0c0,32 9,65 27,100 51,99 160,197 292,272 134,76 288,126 428,126l0 0c68,0 133,-12 187,-40l234 -120 -226 691 -207 -67 82 -251c-23,2 -46,4 -70,4l0 0c-178,0 -370,-61 -535,-154 -130,-74 -244,-169 -321,-273 -78,104 -191,199 -321,273 -165,93 -358,154 -535,154 -24,0 -47,-1 -70,-3l82 250 -207 67z"/>
  <path class="fil0" d="M2168 289c87,0 158,-71 158,-158 0,-87 -71,-158 -158,-158 -87,0 -158,71 -158,158 0,87 71,158 158,158z"/>
  <path class="fil0" d="M2168 -18c-41,0 -79,16 -106,43 -27,27 -43,65 -43,106 0,41 16,79 43,106 27,27 65,43 106,43 41,0 78,-16 106,-43 27,-27 43,-65 43,-106 0,-41 -16,-79 -43,-106 -28,-27 -65,-43 -106,-43zm-118 31l0 0c30,-30 72,-49 118,-49 46,0 88,19 118,49 30,30 49,72 49,118 0,46 -19,88 -49,118 -30,30 -72,49 -118,49 -46,0 -88,-19 -118,-49 -30,-30 -49,-72 -49,-118 0,-46 19,-88 49,-118z"/>
  <path class="fil0" d="M993 861c87,0 158,-71 158,-158 0,-87 -71,-158 -158,-158 -87,0 -158,71 -158,158 0,87 71,158 158,158z"/>
  <path class="fil0" d="M993 553c-41,0 -78,17 -105,44 -27,27 -44,64 -44,106 0,41 17,78 44,105 27,27 64,44 105,44 42,0 79,-17 106,-44 27,-27 44,-64 44,-105 0,-42 -17,-79 -44,-106 -27,-27 -64,-44 -106,-44zm-117 32l0 0c30,-30 71,-49 117,-49 46,0 88,19 118,49 31,30 49,72 49,118 0,46 -18,87 -49,117 -30,31 -72,49 -118,49 -46,0 -87,-18 -117,-49 -31,-30 -49,-71 -49,-117 0,-46 18,-88 49,-118z"/>
  <path class="fil0" d="M3339 861c87,0 158,-71 158,-158 0,-87 -71,-158 -158,-158 -87,0 -158,71 -158,158 0,87 71,158 158,158z"/>
  <path class="fil0" d="M3339 553c-41,0 -79,17 -106,44 -27,27 -44,64 -44,106 0,41 17,78 44,105 27,27 65,44 106,44 41,0 78,-17 105,-44 27,-27 44,-64 44,-105 0,-42 -17,-79 -44,-106 -27,-27 -64,-44 -105,-44zm-118 32l0 0c30,-30 72,-49 118,-49 46,0 87,19 118,49 30,30 48,72 48,118 0,46 -18,87 -48,117 -31,31 -72,49 -118,49 -46,0 -88,-18 -118,-49 -30,-30 -49,-71 -49,-117 0,-46 19,-88 49,-118z"/>
  <path class="fil0" d="M2966 2104c81,222 64,455 -28,653 -93,198 -261,361 -482,442 -222,80 -455,63 -653,-29 -198,-92 -361,-260 -442,-482 -80,-221 -64,-455 29,-653 92,-198 260,-361 482,-441 97,-36 197,-52 296,-52 102,1 203,20 297,55l-111 296c-59,-22 -122,-34 -187,-34 -61,-1 -125,10 -187,32 -139,51 -245,154 -303,278 -58,125 -69,271 -18,411 51,139 153,245 278,303 124,58 271,69 410,18 140,-51 245,-153 304,-278 58,-124 -81,163 0,0l315 -519z"/>
 </g>
</svg>
